<?xml version="1.0" encoding="UTF-8"?>
<svg id="Layer_2" data-name="Layer 2" xmlns="http://www.w3.org/2000/svg" viewBox="0 0 1737.51 1348">
  <defs>
    <style>
      .cls-1 {
        fill: #101014;
      }
    </style>
  </defs>
  <g id="Layer_6" data-name="Layer 6">
    <path class="cls-1" d="m1599.88,1163.54l137.62,10.19-30.52-49.61-91.2-5.1,36.05-84.54-31.91-51.87-54.26,128.79-141.82-10.79-15.99-26,194.56-120.47-23.07-37.49-167.23,2.71,77.05-149.29-23.24-37.77-194.88,119.9-28.79-46.8,194.53-120.45-23.07-37.49-167.23,2.71,77.05-149.29-23.24-37.77-194.84,119.88-13.69-22.25,54.92-150.31,138.17,27.6-31.22-50.74-145.84-30.73,92.08-56.65-27.92-45.38-194.82,119.86L769,36l69,44L739.48,0H0v1348h1576l-31.53-51.26,55.42-133.19Zm-49.87-6.08l-37.94,86.62-56.06-91.13,93.99,4.52Zm-139.17-332.2l-59.47,116.25,12.66,20.58,133.32-1.94-115.86,71.63-84.09-136.72,113.44-69.8Zm-165.62-269.19l-59.47,116.25,12.66,20.58,133.31-1.94-115.83,71.6-84.09-136.72,113.41-69.78Zm-192.85-165.4l43.87,9.46-37.29,107.27-53.89-87.62,47.32-29.11Z"/>
  </g>
</svg>