<svg id="arcai" xmlns="http://www.w3.org/2000/svg" viewBox="0 0 466.82 1811.6">
  <defs>
    <style>
      .arcai-pattern {
        fill: #490D14;
      }
    </style>
  </defs>
  <path class="arcai-pattern"
    d="M148.54,457.24C141,446.6,30,340.22,71,206.48S168.3,21.07,192.62,5.87,251.89,12,251.89,12a322.21,322.21,0,0,1,36.47,71.43c15.2,42.55-69.91,51.67-118.54,155C116.21,352.33,148.54,457.24,148.54,457.24Z"
    transform="translate(-2.72 -0.4)" />
  <path class="arcai-pattern"
    d="M264.81,186S199.46,268,182.74,356.17s-9.12,153.5,27.35,170.21S280,520.31,283,499s35-66.87,12.16-152S267.84,249.79,264.81,186Z"
    transform="translate(-2.72 -0.4)" />
  <path class="arcai-pattern"
    d="M290.15,20.05s75,83.85,103.83,124.88,57.75,171.73,10.64,206.68S318,321.22,319.52,303,333.74,62.35,290.15,20.05Z"
    transform="translate(-2.72 -0.4)" />
  <path class="arcai-pattern"
    d="M375.75,385.05s-66.87,53.19-85.6,242.34c.49,85.92,96,176.3,139.43,201.78,20.63-85.46,13-197.92-8.24-222.24C393.25,574.83,353,524.86,375.75,385.05Z"
    transform="translate(-2.72 -0.4)" />
  <path class="arcai-pattern"
    d="M88.51,401.76S46,446.52,62,557.12s53.91,103,53.91,103-45.45,41.79-45.59,48.63,123.1,38,155,48.64c0,0,71.43,18.23,106.38,41,13.68-25.84-148.93-124.62-86.62-243.16C176.66,547.66,74.84,613,88.51,401.76Z"
    transform="translate(-2.72 -0.4)" />
  <path class="arcai-pattern"
    d="M360.85,808.27l-35,48.63s38,79,38,101.82c9.12,19.76-22.8,63.83-15.2,71.43,15.2-25.84,92.71-60.79,82.07-83.59C420.12,922.25,360.85,808.27,360.85,808.27Z"
    transform="translate(-2.72 -0.4)" />
  <path class="arcai-pattern" d="M30.5,784.3l91.18,203.64,60.79-124.62S80.65,822.29,30.5,784.3Z"
    transform="translate(-2.72 -0.4)" />
  <path class="arcai-pattern" d="M27.72,1399c3-7.6,53.19-109.42,53.19-109.42L90,1423.34l-31.16,52Z"
    transform="translate(-2.72 -0.4)" />
  <path class="arcai-pattern"
    d="M54.78,987.88,3.11,1136.81s56.23,96.29,51.67,143.13c41-27.63,80.54-83.86,80.54-83.86S114.05,1071.46,54.78,987.88Z"
    transform="translate(-2.72 -0.4)" />
  <path class="arcai-pattern"
    d="M3.06,1812c-.76,1.32,0-235.73,0-235.73l150.45-183.71,82.07,91.18S80.56,1678.26,3.06,1812Z"
    transform="translate(-2.72 -0.4)" />
  <polygon class="arcai-pattern"
    points="179.59 1363.27 238.86 1294.78 336.12 1460.54 466.82 1712.81 266.21 1577.56 267.74 1460.54 179.59 1363.27" />
  <polygon class="arcai-pattern"
    points="279.89 1240.17 398.43 1094.28 398.43 1328.45 369.56 1369.35 355.96 1366.31 279.89 1240.17" />
  <path class="arcai-pattern"
    d="M244.62,1213.22s107.9-85.11,107.9-117S246.14,948.78,223.34,933.58c1.52,27.36-47.11,212.77-41,224.92S244.62,1213.22,244.62,1213.22Z"
    transform="translate(-2.72 -0.4)" />
</svg>