<?xml version="1.0" encoding="UTF-8"?>
<svg xmlns="http://www.w3.org/2000/svg" viewBox="0 0 838.26 1366.3">
  <defs>
    <style>
      .starmap-1 {
        letter-spacing: 0em;
      }

      .starmap-2 {
        letter-spacing: 0em;
      }

      .starmap-3 {
        letter-spacing: 0em;
      }

      .starmap-4 {
        letter-spacing: 0em;
      }

      .starmap-5 {
        font-family: Montserrat-Regular, Montserrat;
        font-size: 33px;
      }

      .starmap-5,
      .starmap-6 {
        fill: #cedffc;
      }

      .starmap-7 {
        stroke-width: 4px;
      }

      .starmap-7,
      .starmap-8 {
        fill: none;
        stroke: #cedffc;
        stroke-miterlimit: 10;
      }

      .starmap-9 {
        letter-spacing: 0em;
      }

      .starmap-10 {
        letter-spacing: -.02em;
      }

      .starmap-11 {
        letter-spacing: .01em;
      }

      .starmap-12 {
        letter-spacing: 0em;
      }

      .starmap-13 {
        letter-spacing: 0em;
      }

      .starmap-14 {
        opacity: .61;
      }
    </style>
  </defs>
  <g>
    <g class="starmap-14">
      <circle class="starmap-6" cx="495.15" cy="376.18" r="40.3" />
      <circle class="starmap-6" cx="204.74" cy="519.13" r="204.69" />
      <circle class="starmap-6" cx="396.88" cy="250.08" r="60.34" />
      <circle class="starmap-6" cx="439.75" cy="1017.96" r="139.85" />
      <path class="starmap-7" d="M837.5,1364.45S34.23,1032.77,226.37,.37" />
    </g>
    <text class="starmap-5" transform="translate(390.84 707.23)">
      <tspan x="0" y="0">Bi</tspan>
      <tspan class="starmap-11" x="33.76" y="0">r</tspan>
      <tspan x="47.49" y="0">th home</tspan>
    </text>
    <text class="starmap-5" transform="translate(555.46 447.17)">
      <tspan class="starmap-9" x="0" y="0">A</tspan>
      <tspan class="starmap-12" x="23.5" y="0">c</tspan>
      <tspan class="starmap-10" x="42.27" y="0">t</tspan>
      <tspan class="starmap-1" x="54.98" y="0">1</tspan>
    </text>
    <text class="starmap-5" transform="translate(444.66 637.17)">
      <tspan class="starmap-4" x="0" y="0">A</tspan>
      <tspan class="starmap-13" x="23.5" y="0">c</tspan>
      <tspan class="starmap-3" x="42.27" y="0">t</tspan>
      <tspan x="55.41" y="0">2</tspan>
    </text>
    <text class="starmap-5" transform="translate(611.16 1129.17)">
      <tspan class="starmap-9" x="0" y="0">A</tspan>
      <tspan class="starmap-12" x="23.5" y="0">c</tspan>
      <tspan class="starmap-2" x="42.27" y="0">t3</tspan>
    </text>
    <polyline class="starmap-8" points="553.46 433.79 521.03 433.79 507.25 420" />
    <polyline class="starmap-8" points="388.46 696.79 356.03 696.79 342.25 683" />
    <polyline class="starmap-8" points="442.46 622.79 410.03 622.79 396.25 609" />
    <polyline class="starmap-8" points="606.46 1117.79 574.03 1117.79 560.25 1104" />
  </g>
</svg>