<?xml version="1.0" encoding="UTF-8"?>
<svg version="1.1" viewBox="0 -256 1850 1850" xmlns="http://www.w3.org/2000/svg"
   xmlns:cc="http://creativecommons.org/ns#" xmlns:dc="http://purl.org/dc/elements/1.1/"
   xmlns:rdf="http://www.w3.org/1999/02/22-rdf-syntax-ns#">
   <metadata>
      <rdf:RDF>
         <cc:Work rdf:about="">
            <dc:format>image/svg+xml</dc:format>
            <dc:type rdf:resource="http://purl.org/dc/dcmitype/StillImage" />
         </cc:Work>
      </rdf:RDF>
   </metadata>
   <g transform="matrix(1 0 0 -1 30.373 1426.9)">
      <path
         d="m1408 608v-320q0-119-84.5-203.5t-203.5-84.5h-832q-119 0-203.5 84.5t-84.5 203.5v832q0 119 84.5 203.5t203.5 84.5h704q14 0 23-9t9-23v-64q0-14-9-23t-23-9h-704q-66 0-113-47t-47-113v-832q0-66 47-113t113-47h832q66 0 113 47t47 113v320q0 14 9 23t23 9h64q14 0 23-9t9-23zm384 864v-512q0-26-19-45t-45-19-45 19l-176 176-652-652q-10-10-23-10t-23 10l-114 114q-10 10-10 23t10 23l652 652-176 176q-19 19-19 45t19 45 45 19h512q26 0 45-19t19-45z"
         fill="currentColor" />
   </g>
</svg>