<?xml version="1.0" encoding="UTF-8"?>
<svg id="Layer_2" data-name="Layer 2" xmlns="http://www.w3.org/2000/svg" viewBox="0 0 1709.55 1348">
  <defs>
    <style>
      .cls-1 {
        fill: #101014;
      }
    </style>
  </defs>
  <g id="Layer_6" data-name="Layer 6">
    <path class="cls-1" d="M1570.44,1111.7l139.11,13.16-4.14-6.78-132.8-12.36,49.66-123.78-4.31-7.06-51.83,129.75-147.56-14.49-24.36-39.9,196.5-119.99-2.93-4.8-218.66,6.52,105.51-191.81-2.93-4.8-196.48,119.98-45.87-75.14,196.47-119.98-2.93-4.8-218.66,6.52,105.51-191.81-2.93-4.8-196.46,119.97-26.38-43.21,48.63-158.13,144.55,32.79-4.66-7.63-219.28-49.9,137.53-83.98-3.45-5.65-196.44,119.96L753,0H0v1348h1576l-60.07-98.4,54.52-137.9ZM1563.96,1110.62l-52.34,131.93-88.91-145.62,141.25,13.7ZM1462.51,748.71l-102.11,186.06,2.07,3.39,212.64-6.14-184.35,112.58-112.1-183.61,183.85-112.27ZM1297.62,478.68l-102.11,186.06,2.07,3.39,212.64-6.14-184.33,112.56-112.1-183.61,183.83-112.26ZM1045.56,363.87l80.68,18.33-46.94,152.26-85.03-139.27,51.29-31.32Z"/>
  </g>
</svg>