<svg xmlns="http://www.w3.org/2000/svg" viewBox="0 0 459.17 445.05">
  <defs>
    <style>
      .outline {
        fill: none;
        stroke: #000;
        stroke-miterlimit: 10;
        stroke-width: 4px;
      }
    </style>
  </defs>
  <path class="outline"
    d="m264.87,87.57v120.03c-1.85.58-41.32.75-44.65.26-.48-1.71-.64-203.83-.13-207.08.55-.07,1.16-.2,1.77-.2,11.91-.01,23.83.03,35.74-.05,1.68-.01,2.38.8,3.12,2.03,12.03,20,24.09,39.99,36.14,59.98,12.96,21.49,25.93,42.99,38.89,64.48.4.67.86,1.3,1.46,2.19.63-1,1.15-1.76,1.62-2.56,24.26-40.91,48.52-81.82,72.77-122.73.37-.62.8-1.21,1.09-1.86.53-1.2,1.4-1.51,2.68-1.51,11.91.04,23.83.02,35.74.03.54,0,1.08.1,1.79.17.05.88.13,1.65.13,2.42.06,18.79.11,37.58.15,56.38.05,26.55.07,53.1.15,79.65.06,22.07.19,44.14.29,66.21,0,.78,0,1.57,0,2.51h-44.94c-.04-.88-.11-1.72-.11-2.57-.04-10.72-.08-21.43-.1-32.15-.04-17.11-.05-34.23-.1-51.34-.03-11.75-.11-23.51-.17-35.26,0-.6-.08-1.21-.16-2.37-.75,1.14-1.24,1.81-1.66,2.53-19.26,32.35-38.54,64.69-57.74,97.08-1.03,1.74-2.11,2.41-4.14,2.35-5.51-.15-11.04-.15-16.55,0-1.89.05-2.83-.65-3.76-2.18-19.02-31.38-38.09-62.72-57.15-94.07-.53-.87-1.08-1.73-1.62-2.6-.19.08-.38.16-.57.23Z" />
  <path class="outline"
    d="m45.58,444.55H.97c-.51-1.82-.67-203.93-.16-207.18.55-.07,1.16-.2,1.77-.2,11.91-.01,23.83.03,35.74-.05,1.68-.01,2.38.8,3.12,2.03,12.03,20,24.09,39.99,36.14,59.98,12.96,21.49,25.93,42.99,38.89,64.48.4.67.87,1.3,1.46,2.19.63-1,1.15-1.76,1.62-2.56,24.26-40.91,48.52-81.82,72.77-122.73.37-.62.8-1.21,1.09-1.86.53-1.2,1.4-1.51,2.68-1.51,11.91.04,23.83.02,35.74.03.54,0,1.08.1,1.79.17.05.87.13,1.65.13,2.42.06,18.79.11,37.58.15,56.38.05,26.55.07,53.1.15,79.65.06,22.07.19,44.14.29,66.21,0,.78,0,1.57,0,2.51h-44.94c-.04-.88-.11-1.72-.11-2.57-.04-10.72-.08-21.43-.1-32.15-.04-17.11-.05-34.23-.1-51.34-.03-11.75-.11-23.51-.17-35.26,0-.6-.08-1.21-.16-2.37-.75,1.14-1.24,1.81-1.66,2.53-19.26,32.35-38.54,64.69-57.74,97.08-1.03,1.74-2.11,2.41-4.14,2.35-5.51-.15-11.04-.15-16.55,0-1.89.05-2.83-.65-3.76-2.18-19.02-31.38-38.09-62.72-57.15-94.07-.53-.87-1.08-1.73-1.89-2.55-.37,2.63-.3,5.22-.31,7.8-.01,2.72,0,5.44,0,8.16v104.62Z" />
  <path class="outline"
    d="m48.98,97c.53-.69,1.01-1.44,1.6-2.07,29.27-30.87,58.56-61.72,87.81-92.61,1.21-1.28,2.4-1.79,4.15-1.79,15.99.06,31.99.04,47.98.04.76,0,1.53.08,2.82.15-28.77,30.97-57.2,61.58-85.76,92.32,30.25,38.28,60.4,76.43,90.91,115.04-1.31,0-2,0-2.68,0-17.03,0-34.06-.02-51.1.04-1.7,0-2.75-.58-3.8-1.87-21-25.8-42.05-51.56-63.09-77.33-.54-.67-1.13-1.3-1.78-2.06-.59.54-1.06.93-1.49,1.38-8.36,8.71-16.7,17.45-25.09,26.13-.99,1.02-1.26,2.08-1.26,3.42.03,15.68.02,31.35.02,47.03v2.82c-1.82.53-43.58.7-47.25.24-.06-.05-.14-.08-.19-.14-.05-.06-.08-.14-.09-.22-.05-.39-.14-.79-.14-1.18,0-68.14,0-136.28,0-204.42,0-.31.09-.62.13-.9,1.69-.55,43.44-.75,47.5-.2.07,3.09.02,6.25.03,9.41,0,3.2,0,6.4,0,9.6v76.71c.25.15.5.3.75.45Z" />
  <path
    d="m459.17,444.68c-1.35,0-2.05,0-2.75,0-16.79,0-33.58-.02-50.38.04-1.71,0-2.73-.55-3.7-1.96-15.45-22.37-30.95-44.7-46.44-67.03-.67-.97-1.36-1.93-2.17-3.06-.71,1.02-1.27,1.79-1.81,2.58-15.34,22.44-30.69,44.87-45.98,67.35-1.07,1.58-2.2,2.14-4.08,2.13-16.47-.07-32.94-.04-49.42-.04-.8,0-1.59,0-2.46,0-.25-1.11.55-1.68,1.02-2.33,9.18-12.7,18.39-25.38,27.59-38.07,15.21-20.97,30.42-41.94,45.62-62.92.51-.71,1.01-1.43,1.67-2.37-24.13-33.77-48.26-67.55-72.64-101.68,1.27-.07,2.04-.15,2.81-.15,16.39,0,32.78.02,49.18-.05,1.81,0,2.88.55,3.92,2.02,14.73,20.92,29.53,41.79,44.32,62.67.51.71,1.04,1.41,1.76,2.39.6-.79,1.12-1.44,1.6-2.12,14.47-20.81,28.93-41.62,43.4-62.43.37-.53.65-1.15,1.12-1.55.5-.42,1.17-.67,1.79-.91.28-.11.63-.02.95-.02,15.75,0,31.51,0,47.26,0,.7,0,1.4.07,1.99.09.15.2.21.26.23.33.02.07,0,.16-.03.24-.06.15-.12.29-.21.43-.13.2-.27.4-.41.59-23.59,32.67-47.17,65.35-70.76,98.02-.05.06-.07.14-.09.22-.03.08-.04.15-.14.54,25.54,35.41,51.19,70.98,77.21,107.06Z" />
</svg>